<?xml version="1.0" encoding="utf-8"?><svg xmlns="http://www.w3.org/2000/svg" xmlns:xlink="http://www.w3.org/1999/xlink"><symbol viewBox="0 0 512 512" id="fb" xmlns="http://www.w3.org/2000/svg"><path d="M384 .1L317.6 0C243 0 194.8 49.5 194.8 126v58.1H128c-5.8 0-10.4 4.7-10.4 10.4v84.2c0 5.8 4.7 10.4 10.4 10.4h66.8v212.4c0 5.8 4.7 10.4 10.4 10.4h87.1c5.8 0 10.4-4.7 10.4-10.4V289.2h78.1c5.8 0 10.4-4.7 10.4-10.4v-84.2c0-2.8-1.1-5.4-3.1-7.4s-4.6-3.1-7.4-3.1h-78.1v-49.2c0-23.7 5.6-35.7 36.5-35.7h44.7c5.8 0 10.4-4.7 10.4-10.4V10.5C394.4 4.8 389.7.1 384 .1z"/></symbol><symbol viewBox="0 0 512 512" id="inst" xmlns="http://www.w3.org/2000/svg"><path d="M256 49.5c67.3 0 75.2.3 101.8 1.5 24.6 1.1 37.9 5.2 46.8 8.7 10.9 4 20.8 10.5 29 18.8 8.4 8.1 14.8 18 18.8 29 3.5 8.9 7.6 22.2 8.7 46.8 1.2 26.6 1.5 34.5 1.5 101.8s-.3 75.2-1.5 101.8c-1.1 24.6-5.2 37.9-8.7 46.8-8.5 22-25.8 39.3-47.8 47.8-8.9 3.5-22.2 7.6-46.8 8.7-26.6 1.2-34.5 1.5-101.8 1.5s-75.2-.3-101.8-1.5c-24.6-1.1-37.9-5.2-46.8-8.7-10.9-4-20.8-10.5-29-18.8-8.4-8.1-14.8-18-18.8-29-3.5-8.9-7.6-22.2-8.7-46.8-1.2-26.6-1.5-34.5-1.5-101.8s.3-75.2 1.5-101.8c1.1-24.6 5.2-37.9 8.7-46.8 4-10.9 10.5-20.8 18.8-29 8.1-8.4 18-14.8 29-18.8 8.9-3.5 22.2-7.6 46.8-8.7 26.6-1.3 34.5-1.5 101.8-1.5m0-45.4c-68.4 0-77 .3-103.9 1.5C125.3 6.8 107 11.1 91 17.3c-16.8 6.3-32 16.2-44.6 29.1C33.5 58.9 23.6 74.2 17.3 91c-6.2 16-10.5 34.3-11.7 61.2C4.4 179 4.1 187.6 4.1 256s.3 77 1.5 103.9c1.2 26.8 5.5 45.1 11.7 61.2 6.3 16.8 16.2 32 29.1 44.6 12.6 12.8 27.8 22.7 44.6 29 16 6.2 34.3 10.5 61.2 11.7 26.9 1.2 35.4 1.5 103.9 1.5s77-.3 103.9-1.5c26.8-1.2 45.1-5.5 61.2-11.7 33.8-13.1 60.6-39.8 73.7-73.7 6.2-16 10.5-34.3 11.7-61.2 1.2-26.9 1.5-35.4 1.5-103.9s-.3-77-1.5-103.9c-1.2-26.8-5.5-45.1-11.7-61.2-6.3-16.8-16.2-32-29.1-44.6-12.6-12.8-27.8-22.7-44.6-29.1-16-6.2-34.3-10.5-61.2-11.7-27-1-35.6-1.3-104-1.3z"/><path d="M256 126.6c-71.4 0-129.4 57.9-129.4 129.4s58 129.4 129.4 129.4 129.4-58 129.4-129.4-58-129.4-129.4-129.4zm0 213.4c-46.4 0-84-37.6-84-84s37.6-84 84-84 84 37.6 84 84-37.6 84-84 84z"/><circle cx="390.5" cy="121.5" r="30.2"/></symbol><symbol viewBox="0 0 550.8 550.8" id="mail" xmlns="http://www.w3.org/2000/svg"><path d="M501.6 491.8c12.4 0 23.1-4.1 32.2-12.2l-156-156.1c-3.7 2.7-7.4 5.3-10.8 7.8-11.7 8.6-21.2 15.3-28.4 20.1-7.3 4.8-17 9.7-29 14.8-12.1 5-23.4 7.5-33.8 7.5h-.6c-10.5 0-21.7-2.5-33.8-7.5-12.1-5-21.8-9.9-29-14.8-7.3-4.8-16.8-11.5-28.4-20.1-3.3-2.4-6.9-5-10.8-7.8L16.9 479.6c9.1 8.1 19.9 12.2 32.2 12.2h452.5zM31 225.3c-11.7-7.8-22-16.7-31-26.7V436l137.5-137.5C110 279.2 74.6 254.9 31 225.3zm489.1 0c-41.9 28.3-77.4 52.7-106.8 73.2L550.8 436V198.6c-8.8 9.8-19.1 18.7-30.7 26.7z"/><path d="M501.6 59H49.2c-15.8 0-27.9 5.3-36.4 16C4.3 85.6 0 99 0 114.9c0 12.9 5.6 26.9 16.9 42 11.3 15.1 23.3 26.9 36 35.5 7 4.9 28 19.5 63 43.8 18.9 13.1 35.4 24.5 49.5 34.4 12.1 8.4 22.4 15.7 31 21.7 1 .7 2.5 1.8 4.6 3.3 2.2 1.6 5 3.6 8.5 6.1 6.7 4.8 12.2 8.7 16.6 11.7 4.4 3 9.7 6.3 16 10 6.2 3.7 12.1 6.5 17.7 8.3 5.5 1.8 10.7 2.8 15.4 2.8h.6c4.7 0 9.8-.9 15.4-2.8 5.5-1.8 11.4-4.6 17.7-8.3 6.2-3.7 11.6-7 16-10s9.9-6.9 16.6-11.7c3.5-2.5 6.3-4.5 8.5-6.1 2.1-1.5 3.6-2.6 4.6-3.3 6.7-4.7 17.1-11.9 31.1-21.6 25.5-17.7 63-43.8 112.7-78.3 15-10.4 27.5-23.1 37.5-37.8 10-14.7 15.1-30.2 15.1-46.4 0-13.5-4.9-25.1-14.6-34.7-9.9-9.7-21.5-14.5-34.8-14.5z"/></symbol><symbol class="dsvg-inline--fa dfa-twitter dfa-w-16" viewBox="0 0 512 512" id="twitter" xmlns="http://www.w3.org/2000/svg"><path d="M459.37 151.716c.325 4.548.325 9.097.325 13.645 0 138.72-105.583 298.558-298.558 298.558-59.452 0-114.68-17.219-161.137-47.106 8.447.974 16.568 1.299 25.34 1.299 49.055 0 94.213-16.568 130.274-44.832-46.132-.975-84.792-31.188-98.112-72.772 6.498.974 12.995 1.624 19.818 1.624 9.421 0 18.843-1.3 27.614-3.573-48.081-9.747-84.143-51.98-84.143-102.985v-1.299c13.969 7.797 30.214 12.67 47.431 13.319-28.264-18.843-46.781-51.005-46.781-87.391 0-19.492 5.197-37.36 14.294-52.954 51.655 63.675 129.3 105.258 216.365 109.807-1.624-7.797-2.599-15.918-2.599-24.04 0-57.828 46.782-104.934 104.934-104.934 30.213 0 57.502 12.67 76.67 33.137 23.715-4.548 46.456-13.32 66.599-25.34-7.798 24.366-24.366 44.833-46.132 57.827 21.117-2.273 41.584-8.122 60.426-16.243-14.292 20.791-32.161 39.308-52.628 54.253z"/></symbol></svg>